<svg id="visual" viewBox="0 0 1920 1080" width="1920" height="1080" xmlns="http://www.w3.org/2000/svg" xmlns:xlink="http://www.w3.org/1999/xlink" version="1.1"><rect x="0" y="0" width="1920" height="1080" fill="#000000"></rect><g transform="translate(1730.4636312816679 -146.01684823697008)"><path d="M698.9 -1056.8C910.8 -951.3 1091.2 -766 1266.8 -533.8C1442.3 -301.7 1613 -22.6 1639.1 280.5C1665.2 583.5 1546.8 910.6 1316.9 1097.3C1087 1284.1 745.6 1330.5 426.2 1401.5C106.7 1472.5 -190.9 1568.1 -485.8 1535.8C-780.6 1503.4 -1072.8 1343 -1191.8 1094.6C-1310.8 846.1 -1256.7 509.5 -1208.3 230.6C-1159.9 -48.3 -1117.2 -269.5 -1058.6 -519C-1000 -768.5 -925.5 -1046.3 -746.4 -1166.9C-567.3 -1287.4 -283.7 -1250.7 -20.1 -1219.4C243.5 -1188.2 486.9 -1162.4 698.9 -1056.8" fill="#f7f7f7"></path></g></svg>