<svg id="visual" viewBox="0 0 540 960" width="540" height="960" xmlns="http://www.w3.org/2000/svg" xmlns:xlink="http://www.w3.org/1999/xlink" version="1.1"><rect x="0" y="0" width="540" height="960" fill="#ffffff"></rect><path d="M48 0L47.5 17.8C47 35.7 46 71.3 44.5 106.8C43 142.3 41 177.7 44.5 213.2C48 248.7 57 284.3 57.5 320C58 355.7 50 391.3 47.3 426.8C44.7 462.3 47.3 497.7 52.3 533.2C57.3 568.7 64.7 604.3 63.8 640C63 675.7 54 711.3 53.8 746.8C53.7 782.3 62.3 817.7 64.2 853.2C66 888.7 61 924.3 58.5 942.2L56 960L0 960L0 942.2C0 924.3 0 888.7 0 853.2C0 817.7 0 782.3 0 746.8C0 711.3 0 675.7 0 640C0 604.3 0 568.7 0 533.2C0 497.7 0 462.3 0 426.8C0 391.3 0 355.7 0 320C0 284.3 0 248.7 0 213.2C0 177.7 0 142.3 0 106.8C0 71.3 0 35.7 0 17.8L0 0Z" fill="#000000" stroke-linecap="round" stroke-linejoin="miter"></path></svg>